<?xml version="1.0" ?><svg id="레이어_1" style="enable-background:new 0 0 40 40;" version="1.1" viewBox="0 0 40 40" xml:space="preserve" xmlns="http://www.w3.org/2000/svg" xmlns:xlink="http://www.w3.org/1999/xlink"><g><path d="M30.94,4.71c-3.89,0-7.06,3.17-7.06,7.06s3.17,7.06,7.06,7.06S38,15.66,38,11.77S34.83,4.71,30.94,4.71z M30.94,17.06   c-2.92,0-5.29-2.37-5.29-5.29s2.37-5.29,5.29-5.29s5.29,2.37,5.29,5.29S33.86,17.06,30.94,17.06z"/><path d="M34.23,11.57c0-0.11-0.01-0.21-0.02-0.32c-0.01-0.1-0.04-0.2-0.06-0.3c-0.02-0.11-0.05-0.22-0.08-0.33   c-0.03-0.1-0.08-0.2-0.13-0.3c-0.03-0.08-0.06-0.15-0.1-0.23c-0.01-0.01-0.02-0.02-0.03-0.03c-0.03-0.05-0.05-0.09-0.08-0.14   c0.28-0.06,0.49-0.31,0.5-0.6c0.02-0.37-0.26-0.68-0.63-0.69l-1.6-0.08c-0.37-0.04-0.68,0.26-0.69,0.63l-0.08,1.6   c-0.02,0.37,0.26,0.68,0.63,0.69c0.01,0,0.02,0,0.03,0c0.35,0,0.64-0.27,0.66-0.63l0.01-0.29c0.07,0.1,0.12,0.2,0.17,0.31   c0.03,0.06,0.06,0.12,0.08,0.18c0.02,0.06,0.04,0.13,0.05,0.2c0.01,0.06,0.03,0.12,0.04,0.18c0.01,0.06,0.01,0.13,0.01,0.19   c0,0.07,0,0.13,0,0.2c0,0.06-0.01,0.12-0.02,0.18c-0.01,0.07-0.02,0.14-0.04,0.2c-0.02,0.06-0.04,0.12-0.06,0.18   c-0.02,0.06-0.04,0.12-0.07,0.18c-0.03,0.06-0.06,0.11-0.09,0.16c-0.04,0.06-0.07,0.12-0.11,0.17c-0.03,0.04-0.07,0.08-0.11,0.12   c-0.05,0.05-0.1,0.11-0.16,0.16c-0.04,0.04-0.09,0.06-0.13,0.1c-0.06,0.05-0.12,0.09-0.19,0.13c-0.05,0.03-0.1,0.05-0.15,0.07   c-0.07,0.03-0.14,0.06-0.21,0.09c-0.05,0.02-0.11,0.03-0.16,0.04c-0.07,0.02-0.15,0.04-0.22,0.04c-0.05,0.01-0.1,0.01-0.14,0.01   c-0.08,0-0.16,0.01-0.25,0c-0.04,0-0.09-0.01-0.13-0.02c-0.08-0.01-0.16-0.02-0.24-0.05c-0.05-0.01-0.1-0.04-0.15-0.05   c-0.07-0.02-0.14-0.05-0.2-0.08c-0.06-0.03-0.11-0.07-0.17-0.1c-0.05-0.03-0.11-0.07-0.16-0.1c-0.05-0.04-0.09-0.08-0.14-0.13   c-0.05-0.05-0.1-0.09-0.14-0.14c-0.04-0.05-0.07-0.1-0.11-0.14c-0.04-0.06-0.08-0.11-0.12-0.17c-0.03-0.06-0.06-0.12-0.08-0.18   c-0.03-0.06-0.05-0.11-0.07-0.17c-0.02-0.07-0.04-0.14-0.06-0.21c-0.01-0.05-0.03-0.1-0.03-0.16c-0.01-0.07-0.01-0.15-0.01-0.22   c0-0.06,0-0.11,0-0.17c0-0.07,0.02-0.13,0.03-0.2c0.01-0.06,0.02-0.13,0.04-0.19c0.02-0.07,0.04-0.13,0.07-0.2   c0.17-0.44,0.48-0.81,0.9-1.04c0.32-0.17,0.44-0.58,0.26-0.9c-0.17-0.32-0.58-0.44-0.9-0.26c-0.62,0.33-1.09,0.85-1.39,1.47   c-0.01,0.01-0.02,0.02-0.03,0.04c-0.03,0.07-0.05,0.15-0.08,0.22c-0.03,0.08-0.07,0.16-0.1,0.24c-0.01,0.03-0.01,0.06-0.02,0.08   c-0.03,0.11-0.04,0.21-0.06,0.32c-0.02,0.11-0.04,0.22-0.04,0.33c-0.01,0.1,0,0.19,0,0.28c0,0.12,0.01,0.24,0.02,0.37   c0.01,0.09,0.03,0.17,0.05,0.25c0.03,0.12,0.05,0.24,0.09,0.36c0.03,0.09,0.07,0.18,0.11,0.27c0.04,0.08,0.06,0.17,0.11,0.25   c0,0,0,0,0,0c0.01,0.02,0.03,0.04,0.04,0.06c0.05,0.09,0.12,0.17,0.18,0.26c0.06,0.09,0.13,0.18,0.2,0.27   c0.06,0.07,0.13,0.13,0.2,0.2c0.09,0.09,0.17,0.17,0.27,0.25c0.07,0.05,0.15,0.1,0.22,0.15c0.11,0.07,0.21,0.14,0.33,0.2   c0.02,0.01,0.04,0.03,0.06,0.04c0.06,0.03,0.13,0.04,0.19,0.06c0.09,0.04,0.18,0.08,0.28,0.11c0.05,0.01,0.1,0.02,0.14,0.03   c0.06,0.01,0.11,0.03,0.17,0.04c0.2,0.04,0.41,0.07,0.61,0.07c0,0,0.01,0,0.01,0c0,0,0,0,0,0c0,0,0,0,0,0   c0.17,0,0.34-0.02,0.51-0.05c0.04-0.01,0.08-0.01,0.12-0.02c0.15-0.03,0.29-0.07,0.43-0.12c0.02-0.01,0.04-0.01,0.06-0.02   c0.01,0,0.01-0.01,0.02-0.01c0.15-0.05,0.29-0.12,0.43-0.19c0,0,0,0,0,0c0.02-0.01,0.03-0.03,0.05-0.04   c0.12-0.07,0.23-0.15,0.33-0.23c0.07-0.05,0.14-0.1,0.2-0.15c0.1-0.08,0.18-0.18,0.27-0.28c0.06-0.07,0.12-0.13,0.18-0.2   c0.07-0.09,0.13-0.19,0.19-0.3c0.05-0.08,0.11-0.17,0.15-0.25c0.01-0.02,0.03-0.04,0.04-0.07c0.04-0.08,0.05-0.16,0.09-0.24   c0.04-0.1,0.08-0.19,0.1-0.3c0.03-0.11,0.05-0.23,0.07-0.34c0.02-0.1,0.03-0.2,0.04-0.29C34.24,11.79,34.24,11.68,34.23,11.57z"/><path d="M10.52,27.92l-3.51,0.02c-0.49,0-0.88,0.4-0.88,0.88c0,0,0,0,0,0.01c0,0.49,0.4,0.88,0.88,0.88c0,0,0,0,0.01,0l3.51-0.02   c0.49,0,0.88-0.4,0.88-0.88c0,0,0,0,0-0.01C11.4,28.31,11.01,27.92,10.52,27.92C10.52,27.92,10.52,27.92,10.52,27.92z"/><path d="M30.93,19.59c-0.49,0-0.88,0.39-0.88,0.88v12.17c0,0.49-0.39,0.88-0.87,0.88H4.64c-0.48,0-0.87-0.4-0.87-0.88V15.08   c0-0.49,0.39-0.88,0.87-0.88h7.88v5.15c0,0.49,0.39,0.88,0.88,0.88h7.01c0.49,0,0.88-0.39,0.88-0.88V14.2h1.17   c0.49,0,0.88-0.39,0.88-0.88s-0.39-0.88-0.88-0.88h-2.05H13.4H4.64C3.18,12.43,2,13.62,2,15.08v17.56c0,1.46,1.18,2.65,2.64,2.65   h24.55c1.45,0,2.64-1.19,2.64-2.65V20.47C31.82,19.98,31.42,19.59,30.93,19.59z M19.53,18.46h-5.25V14.2h5.25V18.46z"/></g></svg>